<svg width="480" height="301" viewBox="0 0 480 301" fill="none" xmlns="http://www.w3.org/2000/svg">
<path fill-rule="evenodd" clip-rule="evenodd" d="M479.9 284.1C479.9 292.9 472.8 300.1 463.9 300.1H16C7.2 300.1 0 293 0 284.1V16.1C0 7.30001 7.1 0.100006 16 0.100006H464C472.8 0.100006 480 7.20001 480 16.1V284.1H479.9Z" fill="white"/>
<path d="M138.6 95.1C134.5 100 127.9 103.8 121.3 103.3C120.5 96.7 123.7 89.7 127.5 85.4C131.6 80.4 138.8 76.8 144.7 76.6C145.3 83.4 142.6 90.1 138.6 95.1ZM144.5 104.5C135 104 126.8 109.9 122.3 109.9C117.7 109.9 110.8 104.7 103.2 104.9C93.4 105.1 84.3 110.6 79.3 119.4C69 137.1 76.6 163.3 86.6 177.7C91.5 184.8 97.3 192.7 105 192.4C112.3 192.1 115.1 187.7 123.9 187.7C132.7 187.7 135.3 192.4 143 192.3C150.9 192.1 155.9 185.2 160.8 178C166.3 169.9 168.6 162 168.7 161.6C168.5 161.4 153.4 155.6 153.2 138.1C153 123.4 165.2 116.4 165.8 116C159 105.9 148.3 104.8 144.5 104.5ZM199.6 84.7V191.5H216.2V155H239.2C260.2 155 274.9 140.6 274.9 119.8C274.9 99 260.4 84.7 239.8 84.7H199.6V84.7ZM216.2 98.7H235.3C249.7 98.7 257.9 106.4 257.9 119.9C257.9 133.4 249.7 141.2 235.2 141.2H216.1L216.2 98.7ZM305.1 192.3C315.5 192.3 325.2 187 329.5 178.7H329.8V191.5H345.1V138.3C345.1 122.9 332.8 112.9 313.8 112.9C296.2 112.9 283.2 123 282.7 136.8H297.7C299 130.2 305 125.9 313.4 125.9C323.5 125.9 329.2 130.6 329.2 139.3V145.2L308.5 146.5C289.3 147.7 278.8 155.5 278.8 169.2C278.9 183.1 289.7 192.3 305.1 192.3ZM309.6 179.7C300.8 179.7 295.1 175.4 295.1 169C295.1 162.3 300.5 158.4 310.9 157.8L329.3 156.6V162.6C329.3 172.5 320.8 179.7 309.6 179.7ZM365.8 220.6C382 220.6 389.6 214.4 396.2 195.7L425.3 114H408.4L388.9 177.1H388.6L369.1 114H351.8L379.9 191.8L378.4 196.5C375.9 204.5 371.8 207.6 364.4 207.6C363.1 207.6 360.6 207.4 359.5 207.3V220.1C360.4 220.4 364.5 220.6 365.8 220.6Z" fill="#313C42"/>
</svg>
