<svg width="481" height="301" viewBox="0 0 481 301" fill="none" xmlns="http://www.w3.org/2000/svg">
<path fill-rule="evenodd" clip-rule="evenodd" d="M480.9 284.1C480.9 292.9 473.8 300.1 464.9 300.1H17C8.2 300.1 1 293 1 284.1V16.1C1 7.30001 8.1 0.100006 17 0.100006H465C473.8 0.100006 481 7.20001 481 16.1V284.1H480.9Z" fill="#FFB3C7"/>
<path d="M46.3 2H431.7C457 2 477.5 24.6 477.5 52.5V243.6C477.5 271.5 457 294.1 431.7 294.1H46.3C21 294.1 0.5 271.5 0.5 243.6V52.5C0.5 24.6 21 2 46.3 2Z" fill="#FFB3C7"/>
<path d="M426.7 175.5C420.4 175.5 415.4 180.6 415.4 186.9C415.4 193.2 420.4 198.3 426.7 198.3C432.9 198.3 438 193.2 438 186.9C438 180.6 433 175.5 426.7 175.5ZM389.5 166.7C389.5 158.1 382.2 151.1 373.2 151.1C364.2 151.1 356.9 158.1 356.9 166.7C356.9 175.3 364.2 182.3 373.2 182.3C382.2 182.3 389.5 175.3 389.5 166.7ZM389.5 136.3H407.5V197H389.5V193.1C384.3 196.7 378 198.7 371.6 198.7C354.1 198.7 339.9 184.4 339.9 166.7C339.9 149 354.1 134.7 371.6 134.7C378.2 134.7 384.4 136.7 389.5 140.3V136.3ZM245.5 144.3V136.4H227V197H245.5V168.7C245.5 159.1 255.8 154 262.9 154H263.1V136.4C255.8 136.4 249.1 139.5 245.5 144.3ZM199.6 166.7C199.6 158.1 192.3 151.1 183.3 151.1C174.3 151.1 167 158.1 167 166.7C167 175.3 174.3 182.3 183.3 182.3C192.3 182.3 199.6 175.3 199.6 166.7ZM199.6 136.3H217.6V197H199.6V193.1C194.5 196.6 188.4 198.7 181.7 198.7C164.2 198.7 150 184.4 150 166.7C150 149 164.2 134.7 181.7 134.7C188.3 134.7 194.5 136.7 199.6 140.3V136.3ZM308 134.7C300.8 134.7 294 136.9 289.5 143.2V136.4H271.6V197H289.7V165.1C289.7 155.9 295.8 151.4 303.2 151.4C311.1 151.4 315.7 156.2 315.7 165V197H333.7V158.4C333.6 144.3 322.5 134.7 308 134.7ZM123.8 197H142.6V109.3H123.8V197ZM41 197.1H61V109.3H41V197.1ZM110.8 109.3C110.8 128.3 103.5 146 90.4 159.1L118 197H93.4L63.4 155.8L71.1 149.9C83.9 140.3 91.3 125.2 91.3 109.2H110.8V109.3Z" fill="#0A0B09"/>
</svg>
