<svg width="481" height="301" viewBox="0 0 481 301" fill="none" xmlns="http://www.w3.org/2000/svg">
<path fill-rule="evenodd" clip-rule="evenodd" d="M480.5 284.6C480.5 293.4 473.4 300.6 464.5 300.6H16.5C7.7 300.6 0.5 293.5 0.5 284.6V16.6C0.5 7.80001 7.6 0.600006 16.5 0.600006H464.5C473.3 0.600006 480.5 7.70001 480.5 16.6V284.6Z" fill="white"/>
<path d="M230.5 148.9V191.7H216.9V86H252.9C261.6 85.8 270 89.1 276.2 95.2C282.5 100.9 286.1 109 285.9 117.5C286.1 126 282.5 134.2 276.2 140C269.9 146 262.1 149 252.9 149L230.5 148.9ZM230.5 99V135.9H253.3C258.4 136 263.2 134.1 266.7 130.4C273.8 123.5 274 112 267.1 104.9C267 104.8 266.9 104.7 266.7 104.5C263.2 100.8 258.3 98.7 253.3 98.9L230.5 99Z" fill="#5F6368"/>
<path d="M317.4 117C327.4 117 335.4 119.7 341.2 125.1C347 130.5 349.9 137.8 349.9 147.2V191.8H336.9V181.8H336.3C330.7 190.1 323.2 194.2 313.8 194.2C305.8 194.2 299.2 191.8 293.8 187.1C288.6 182.7 285.6 176.2 285.7 169.4C285.7 161.9 288.5 156 294.2 151.5C299.9 147.1 307.4 144.9 316.9 144.8C325 144.8 331.6 146.3 336.8 149.2V146.1C336.8 141.5 334.8 137 331.2 134.1C327.6 130.9 322.9 129.1 318.1 129.1C310.5 129.1 304.5 132.3 300.1 138.7L288.1 131.2C294.7 121.7 304.5 117 317.4 117ZM299.8 169.6C299.8 173.1 301.5 176.4 304.3 178.5C307.3 180.9 311 182.1 314.9 182C320.6 182 326.1 179.7 330.2 175.7C334.7 171.5 337 166.5 337 160.8C332.8 157.4 326.9 155.7 319.3 155.7C313.8 155.7 309.2 157 305.5 159.7C301.7 162.4 299.8 165.6 299.8 169.6Z" fill="#5F6368"/>
<path d="M424.5 119.4L379.1 223.7H365.1L381.9 187.2L352.1 119.4H366.9L388.5 171.4H388.8L409.8 119.4H424.5V119.4Z" fill="#5F6368"/>
<path d="M175.6 139.7C175.6 135.6 175.3 131.4 174.6 127.3H117.3V150.7H150.1C148.7 158.3 144.4 164.9 138 169.2V184.4H157.6C169 173.8 175.6 158.2 175.6 139.7Z" fill="#4285F4"/>
<path d="M117.3 199.1C133.7 199.1 147.5 193.7 157.6 184.4L138 169.2C132.5 172.9 125.5 175 117.3 175C101.4 175 88 164.3 83.2 149.9H63V165.6C73.3 186.1 94.3 199.1 117.3 199.1Z" fill="#34A853"/>
<path d="M83.1998 149.9C80.6998 142.4 80.6998 134.2 83.1998 126.6V111H62.9998C54.3998 128.2 54.3998 148.4 62.9998 165.6L83.1998 149.9Z" fill="#FBBC04"/>
<path d="M117.3 101.6C126 101.5 134.3 104.7 140.6 110.7L157.9 93.4C146.9 83.1 132.3 77.4 117.2 77.6C94.1999 77.6 73.1999 90.6 62.8999 111.1L83.0999 126.8C87.9999 112.3 101.4 101.6 117.3 101.6Z" fill="#EA4335"/>
</svg>
