<svg width="121" height="41" viewBox="0 0 121 41" fill="none" xmlns="http://www.w3.org/2000/svg">
<g fill="#fff" transform="scale(0.74)"><path d="m19.4 19.4c0-7.7-3.9-11-8.7-11-2.2 0-4.1.7-5.6 2.1v-9.6h-5.1v29.1h4.3l.3-2c1.6 1.7 3.7 2.5 6 2.5 4.9-.1 8.8-3.2 8.8-11.1zm-14.4 2.6c-.2-.7-.2-1.6-.2-2.6s.1-1.8.2-2.5c.6-2.9 2.4-4.2 4.5-4.2 2.6 0 4.7 2 4.7 6.7 0 4.8-2.1 6.7-4.7 6.7-2.1.1-3.8-1.1-4.5-4.1zm108.2-13.6c-5.4 0-9.7 3.3-9.7 11 0 7.8 4.4 11 9.7 11 5.4 0 9.7-3.2 9.7-11 .1-7.7-4.3-11-9.7-11zm.1 17.8c-2.6 0-4.7-2-4.7-6.7s2.1-6.7 4.7-6.7 4.7 2 4.7 6.7c0 4.8-2.1 6.7-4.7 6.7zm-72.3-.5c-1 0-1.8-.5-1.8-1.8v-23h-5v23.1c0 .5 0 1 .1 1.5.5 3.3 2.7 4.7 5.3 4.7.8 0 1.6-.1 2.4-.4v-4.2c-.5.1-.8.1-1 .1zm34.3-6.3c0-.7 0-1.4-.1-2-.7-6.2-4.7-9-9.5-9-5.3 0-9.6 3.3-9.6 11 0 7.8 4.3 11 9.6 11 4.1 0 7.6-1.9 8.9-6.4h-5.2c-.9 1.5-2.2 2.1-3.7 2.1-2.3 0-4.2-1.5-4.6-5.1h14.2zm-14.1-2c.5-3.2 2.4-4.7 4.6-4.7s4 1.4 4.6 4.7zm-37.5-8.4h5v25.4h-5zm28.7 16.7c-1 0-1.8-.5-1.8-1.8v-23h-5v23.1c0 .5 0 1 .1 1.5.5 3.3 2.7 4.7 5.3 4.7.8 0 1.6-.1 2.4-.4v-4.2c-.5.1-.8.1-1 .1zm49.3-13.6v-3.7h-4.7v-7.5h-5v7.5h-6.4v-7.5h-5v7.5h-4v3.7h4v11.9c0 .5 0 1 .1 1.5.5 3.3 2.7 4.7 5.3 4.7.8 0 1.6-.1 2.4-.4v-4.2c-.3.1-.6.1-.9.1-1 0-1.8-.5-1.8-1.8v-11.8h6.4v11.9c0 .5 0 1 .1 1.5.5 3.3 2.7 4.7 5.3 4.7.8 0 1.6-.1 2.4-.4v-4.2c-.3.1-.6.1-.9.1-1 0-1.8-.5-1.8-1.8v-11.8z"/><circle cx="26.2" cy="3.1" r="3.1"/><circle cx="127.4" cy="27.3" r="3.1"/><path d="m23.5 45c-5.9 0-10.6-4.8-10.6-10.6h-5c0 8.6 7 15.7 15.7 15.7s15.7-7 15.7-15.7h-5c-.2 5.8-5 10.6-10.8 10.6z"/></g>
<path d="M45.084 33.959H42.9102V32.5879H45.084C45.4199 32.5879 45.6934 32.5332 45.9043 32.4238C46.1152 32.3105 46.2695 32.1543 46.3672 31.9551C46.4648 31.7559 46.5137 31.5312 46.5137 31.2812C46.5137 31.0273 46.4648 30.791 46.3672 30.5723C46.2695 30.3535 46.1152 30.1777 45.9043 30.0449C45.6934 29.9121 45.4199 29.8457 45.084 29.8457H43.5195V37H41.7617V28.4688H45.084C45.752 28.4688 46.3242 28.5898 46.8008 28.832C47.2812 29.0703 47.6484 29.4004 47.9023 29.8223C48.1562 30.2441 48.2832 30.7266 48.2832 31.2695C48.2832 31.8203 48.1562 32.2969 47.9023 32.6992C47.6484 33.1016 47.2812 33.4121 46.8008 33.6309C46.3242 33.8496 45.752 33.959 45.084 33.959ZM52.2266 37.1172C51.7344 37.1172 51.293 37.0391 50.9023 36.8828C50.5117 36.7227 50.1797 36.502 49.9062 36.2207C49.6367 35.9395 49.4297 35.6133 49.2852 35.2422C49.1406 34.8672 49.0684 34.4688 49.0684 34.0469V33.8125C49.0684 33.332 49.1367 32.8926 49.2734 32.4941C49.4102 32.0957 49.6055 31.75 49.8594 31.457C50.1172 31.1641 50.4297 30.9395 50.7969 30.7832C51.1641 30.623 51.5781 30.543 52.0391 30.543C52.4883 30.543 52.8867 30.6172 53.2344 30.7656C53.582 30.9141 53.873 31.125 54.1074 31.3984C54.3457 31.6719 54.5254 32 54.6465 32.3828C54.7676 32.7617 54.8281 33.1836 54.8281 33.6484V34.3516H49.7891V33.2266H53.1699V33.0977C53.1699 32.8633 53.127 32.6543 53.041 32.4707C52.959 32.2832 52.834 32.1348 52.666 32.0254C52.498 31.916 52.2832 31.8613 52.0215 31.8613C51.7988 31.8613 51.6074 31.9102 51.4473 32.0078C51.2871 32.1055 51.1562 32.2422 51.0547 32.418C50.957 32.5938 50.8828 32.8008 50.832 33.0391C50.7852 33.2734 50.7617 33.5312 50.7617 33.8125V34.0469C50.7617 34.3008 50.7969 34.5352 50.8672 34.75C50.9414 34.9648 51.0449 35.1504 51.1777 35.3066C51.3145 35.4629 51.4785 35.584 51.6699 35.6699C51.8652 35.7559 52.0859 35.7988 52.332 35.7988C52.6367 35.7988 52.9199 35.7402 53.1816 35.623C53.4473 35.502 53.6758 35.3203 53.8672 35.0781L54.6875 35.9688C54.5547 36.1602 54.373 36.3438 54.1426 36.5195C53.916 36.6953 53.6426 36.8398 53.3223 36.9531C53.002 37.0625 52.6367 37.1172 52.2266 37.1172ZM59.2109 35.5703V32.7461C59.2109 32.543 59.1777 32.3691 59.1113 32.2246C59.0449 32.0762 58.9414 31.9609 58.8008 31.8789C58.6641 31.7969 58.4863 31.7559 58.2676 31.7559C58.0801 31.7559 57.918 31.7891 57.7812 31.8555C57.6445 31.918 57.5391 32.0098 57.4648 32.1309C57.3906 32.248 57.3535 32.3867 57.3535 32.5469H55.666C55.666 32.2773 55.7285 32.0215 55.8535 31.7793C55.9785 31.5371 56.1602 31.3242 56.3984 31.1406C56.6367 30.9531 56.9199 30.8066 57.248 30.7012C57.5801 30.5957 57.9512 30.543 58.3613 30.543C58.8535 30.543 59.291 30.625 59.6738 30.7891C60.0566 30.9531 60.3574 31.1992 60.5762 31.5273C60.7988 31.8555 60.9102 32.2656 60.9102 32.7578V35.4707C60.9102 35.8184 60.9316 36.1035 60.9746 36.3262C61.0176 36.5449 61.0801 36.7363 61.1621 36.9004V37H59.457C59.375 36.8281 59.3125 36.6133 59.2695 36.3555C59.2305 36.0938 59.2109 35.832 59.2109 35.5703ZM59.4336 33.1387L59.4453 34.0938H58.502C58.2793 34.0938 58.0859 34.1191 57.9219 34.1699C57.7578 34.2207 57.623 34.293 57.5176 34.3867C57.4121 34.4766 57.334 34.582 57.2832 34.7031C57.2363 34.8242 57.2129 34.957 57.2129 35.1016C57.2129 35.2461 57.2461 35.377 57.3125 35.4941C57.3789 35.6074 57.4746 35.6973 57.5996 35.7637C57.7246 35.8262 57.8711 35.8574 58.0391 35.8574C58.293 35.8574 58.5137 35.8066 58.7012 35.7051C58.8887 35.6035 59.0332 35.4785 59.1348 35.3301C59.2402 35.1816 59.2949 35.041 59.2988 34.9082L59.7441 35.623C59.6816 35.7832 59.5957 35.9492 59.4863 36.1211C59.3809 36.293 59.2461 36.4551 59.082 36.6074C58.918 36.7559 58.7207 36.8789 58.4902 36.9766C58.2598 37.0703 57.9863 37.1172 57.6699 37.1172C57.2676 37.1172 56.9023 37.0371 56.5742 36.877C56.25 36.7129 55.9922 36.4883 55.8008 36.2031C55.6133 35.9141 55.5195 35.5859 55.5195 35.2188C55.5195 34.8867 55.582 34.5918 55.707 34.334C55.832 34.0762 56.0156 33.8594 56.2578 33.6836C56.5039 33.5039 56.8105 33.3691 57.1777 33.2793C57.5449 33.1855 57.9707 33.1387 58.4551 33.1387H59.4336ZM64.8301 35.7988C65.0371 35.7988 65.2207 35.7598 65.3809 35.6816C65.541 35.5996 65.666 35.4863 65.7559 35.3418C65.8496 35.1934 65.8984 35.0195 65.9023 34.8203H67.4902C67.4863 35.2656 67.3672 35.6621 67.1328 36.0098C66.8984 36.3535 66.584 36.625 66.1895 36.8242C65.7949 37.0195 65.3535 37.1172 64.8652 37.1172C64.373 37.1172 63.9434 37.0352 63.5762 36.8711C63.2129 36.707 62.9102 36.4805 62.668 36.1914C62.4258 35.8984 62.2441 35.5586 62.123 35.1719C62.002 34.7812 61.9414 34.3633 61.9414 33.918V33.748C61.9414 33.2988 62.002 32.8809 62.123 32.4941C62.2441 32.1035 62.4258 31.7637 62.668 31.4746C62.9102 31.1816 63.2129 30.9531 63.5762 30.7891C63.9395 30.625 64.3652 30.543 64.8535 30.543C65.373 30.543 65.8281 30.6426 66.2188 30.8418C66.6133 31.041 66.9219 31.3262 67.1445 31.6973C67.3711 32.0645 67.4863 32.5 67.4902 33.0039H65.9023C65.8984 32.793 65.8535 32.6016 65.7676 32.4297C65.6855 32.2578 65.5645 32.1211 65.4043 32.0195C65.248 31.9141 65.0547 31.8613 64.8242 31.8613C64.5781 31.8613 64.377 31.9141 64.2207 32.0195C64.0645 32.1211 63.9434 32.2617 63.8574 32.4414C63.7715 32.6172 63.7109 32.8184 63.6758 33.0449C63.6445 33.2676 63.6289 33.502 63.6289 33.748V33.918C63.6289 34.1641 63.6445 34.4004 63.6758 34.627C63.707 34.8535 63.7656 35.0547 63.8516 35.2305C63.9414 35.4062 64.0645 35.5449 64.2207 35.6465C64.377 35.748 64.5801 35.7988 64.8301 35.7988ZM71.3867 37.1172C70.8945 37.1172 70.4531 37.0391 70.0625 36.8828C69.6719 36.7227 69.3398 36.502 69.0664 36.2207C68.7969 35.9395 68.5898 35.6133 68.4453 35.2422C68.3008 34.8672 68.2285 34.4688 68.2285 34.0469V33.8125C68.2285 33.332 68.2969 32.8926 68.4336 32.4941C68.5703 32.0957 68.7656 31.75 69.0195 31.457C69.2773 31.1641 69.5898 30.9395 69.957 30.7832C70.3242 30.623 70.7383 30.543 71.1992 30.543C71.6484 30.543 72.0469 30.6172 72.3945 30.7656C72.7422 30.9141 73.0332 31.125 73.2676 31.3984C73.5059 31.6719 73.6855 32 73.8066 32.3828C73.9277 32.7617 73.9883 33.1836 73.9883 33.6484V34.3516H68.9492V33.2266H72.3301V33.0977C72.3301 32.8633 72.2871 32.6543 72.2012 32.4707C72.1191 32.2832 71.9941 32.1348 71.8262 32.0254C71.6582 31.916 71.4434 31.8613 71.1816 31.8613C70.959 31.8613 70.7676 31.9102 70.6074 32.0078C70.4473 32.1055 70.3164 32.2422 70.2148 32.418C70.1172 32.5938 70.043 32.8008 69.9922 33.0391C69.9453 33.2734 69.9219 33.5312 69.9219 33.8125V34.0469C69.9219 34.3008 69.957 34.5352 70.0273 34.75C70.1016 34.9648 70.2051 35.1504 70.3379 35.3066C70.4746 35.4629 70.6387 35.584 70.8301 35.6699C71.0254 35.7559 71.2461 35.7988 71.4922 35.7988C71.7969 35.7988 72.0801 35.7402 72.3418 35.623C72.6074 35.502 72.8359 35.3203 73.0273 35.0781L73.8477 35.9688C73.7148 36.1602 73.5332 36.3438 73.3027 36.5195C73.0762 36.6953 72.8027 36.8398 72.4824 36.9531C72.1621 37.0625 71.7969 37.1172 71.3867 37.1172ZM77.668 33.8945V33.7715C77.668 33.3066 77.7344 32.8789 77.8672 32.4883C78 32.0938 78.1934 31.752 78.4473 31.4629C78.7012 31.1738 79.0137 30.9492 79.3848 30.7891C79.7559 30.625 80.1816 30.543 80.6621 30.543C81.1426 30.543 81.5703 30.625 81.9453 30.7891C82.3203 30.9492 82.6348 31.1738 82.8887 31.4629C83.1465 31.752 83.3418 32.0938 83.4746 32.4883C83.6074 32.8789 83.6738 33.3066 83.6738 33.7715V33.8945C83.6738 34.3555 83.6074 34.7832 83.4746 35.1777C83.3418 35.5684 83.1465 35.9102 82.8887 36.2031C82.6348 36.4922 82.3223 36.7168 81.9512 36.877C81.5801 37.0371 81.1543 37.1172 80.6738 37.1172C80.1934 37.1172 79.7656 37.0371 79.3906 36.877C79.0195 36.7168 78.7051 36.4922 78.4473 36.2031C78.1934 35.9102 78 35.5684 77.8672 35.1777C77.7344 34.7832 77.668 34.3555 77.668 33.8945ZM79.3555 33.7715V33.8945C79.3555 34.1602 79.3789 34.4082 79.4258 34.6387C79.4727 34.8691 79.5469 35.0723 79.6484 35.248C79.7539 35.4199 79.8906 35.5547 80.0586 35.6523C80.2266 35.75 80.4316 35.7988 80.6738 35.7988C80.9082 35.7988 81.1094 35.75 81.2773 35.6523C81.4453 35.5547 81.5801 35.4199 81.6816 35.248C81.7832 35.0723 81.8574 34.8691 81.9043 34.6387C81.9551 34.4082 81.9805 34.1602 81.9805 33.8945V33.7715C81.9805 33.5137 81.9551 33.2715 81.9043 33.0449C81.8574 32.8145 81.7812 32.6113 81.6758 32.4355C81.5742 32.2559 81.4395 32.1152 81.2715 32.0137C81.1035 31.9121 80.9004 31.8613 80.6621 31.8613C80.4238 31.8613 80.2207 31.9121 80.0527 32.0137C79.8887 32.1152 79.7539 32.2559 79.6484 32.4355C79.5469 32.6113 79.4727 32.8145 79.4258 33.0449C79.3789 33.2715 79.3555 33.5137 79.3555 33.7715ZM86.8613 37H85.1621V30.0977C85.1621 29.6172 85.2559 29.2129 85.4434 28.8848C85.6348 28.5527 85.9023 28.3027 86.2461 28.1348C86.5938 27.9629 87.0059 27.877 87.4824 27.877C87.6387 27.877 87.7891 27.8887 87.9336 27.9121C88.0781 27.9316 88.2188 27.957 88.3555 27.9883L88.3379 29.2598C88.2637 29.2402 88.1855 29.2266 88.1035 29.2188C88.0215 29.2109 87.9258 29.207 87.8164 29.207C87.6133 29.207 87.4395 29.2422 87.2949 29.3125C87.1543 29.3789 87.0469 29.4785 86.9727 29.6113C86.8984 29.7441 86.8613 29.9062 86.8613 30.0977V37ZM88.127 30.6602V31.8555H84.2188V30.6602H88.127ZM92.9082 28.4688H94.3965L96.5879 34.7324L98.7793 28.4688H100.268L97.1855 37H95.9902L92.9082 28.4688ZM92.1055 28.4688H93.5879L93.8574 34.5742V37H92.1055V28.4688ZM99.5879 28.4688H101.076V37H99.3184V34.5742L99.5879 28.4688ZM104.293 30.6602V37H102.6V30.6602H104.293ZM102.494 29.0078C102.494 28.7617 102.58 28.5586 102.752 28.3984C102.924 28.2383 103.154 28.1582 103.443 28.1582C103.729 28.1582 103.957 28.2383 104.129 28.3984C104.305 28.5586 104.393 28.7617 104.393 29.0078C104.393 29.2539 104.305 29.457 104.129 29.6172C103.957 29.7773 103.729 29.8574 103.443 29.8574C103.154 29.8574 102.924 29.7773 102.752 29.6172C102.58 29.457 102.494 29.2539 102.494 29.0078ZM107.34 32.0137V37H105.652V30.6602H107.234L107.34 32.0137ZM107.094 33.6074H106.637C106.637 33.1387 106.697 32.7168 106.818 32.3418C106.939 31.9629 107.109 31.6406 107.328 31.375C107.547 31.1055 107.807 30.9004 108.107 30.7598C108.412 30.6152 108.752 30.543 109.127 30.543C109.424 30.543 109.695 30.5859 109.941 30.6719C110.188 30.7578 110.398 30.8945 110.574 31.082C110.754 31.2695 110.891 31.5176 110.984 31.8262C111.082 32.1348 111.131 32.5117 111.131 32.957V37H109.432V32.9512C109.432 32.6699 109.393 32.4512 109.314 32.2949C109.236 32.1387 109.121 32.0293 108.969 31.9668C108.82 31.9004 108.637 31.8672 108.418 31.8672C108.191 31.8672 107.994 31.9121 107.826 32.002C107.662 32.0918 107.525 32.2168 107.416 32.377C107.311 32.5332 107.23 32.7168 107.176 32.9277C107.121 33.1387 107.094 33.3652 107.094 33.6074ZM116.158 35.6172V28H117.857V37H116.328L116.158 35.6172ZM112.15 33.9062V33.7832C112.15 33.2988 112.205 32.8594 112.314 32.4648C112.424 32.0664 112.584 31.7246 112.795 31.4395C113.006 31.1543 113.266 30.9336 113.574 30.7773C113.883 30.6211 114.234 30.543 114.629 30.543C115 30.543 115.324 30.6211 115.602 30.7773C115.883 30.9336 116.121 31.1562 116.316 31.4453C116.516 31.7305 116.676 32.0684 116.797 32.459C116.918 32.8457 117.006 33.2695 117.061 33.7305V34C117.006 34.4414 116.918 34.8516 116.797 35.2305C116.676 35.6094 116.516 35.9414 116.316 36.2266C116.121 36.5078 115.883 36.7266 115.602 36.8828C115.32 37.0391 114.992 37.1172 114.617 37.1172C114.223 37.1172 113.871 37.0371 113.562 36.877C113.258 36.7168 113 36.4922 112.789 36.2031C112.582 35.9141 112.424 35.5742 112.314 35.1836C112.205 34.793 112.15 34.3672 112.15 33.9062ZM113.838 33.7832V33.9062C113.838 34.168 113.857 34.4121 113.896 34.6387C113.939 34.8652 114.008 35.0664 114.102 35.2422C114.199 35.4141 114.324 35.5488 114.477 35.6465C114.633 35.7402 114.822 35.7871 115.045 35.7871C115.334 35.7871 115.572 35.7227 115.76 35.5938C115.947 35.4609 116.09 35.2793 116.188 35.0488C116.289 34.8184 116.348 34.5527 116.363 34.252V33.4844C116.352 33.2383 116.316 33.0176 116.258 32.8223C116.203 32.623 116.121 32.4531 116.012 32.3125C115.906 32.1719 115.773 32.0625 115.613 31.9844C115.457 31.9062 115.271 31.8672 115.057 31.8672C114.838 31.8672 114.65 31.918 114.494 32.0195C114.338 32.1172 114.211 32.252 114.113 32.4238C114.02 32.5957 113.949 32.7988 113.902 33.0332C113.859 33.2637 113.838 33.5137 113.838 33.7832Z" fill="white"/>
<path fill-rule="evenodd" clip-rule="evenodd" d="M109 21C111.122 21 113.157 20.1571 114.657 18.6569C116.157 17.1566 117 15.1217 117 13C117 10.8783 116.157 8.84344 114.657 7.34315C113.157 5.84285 111.122 5 109 5C106.878 5 104.843 5.84285 103.343 7.34315C101.843 8.84344 101 10.8783 101 13C101 15.1217 101.843 17.1566 103.343 18.6569C104.843 20.1571 106.878 21 109 21ZM112.857 11.191C112.915 11.1113 112.957 11.0209 112.98 10.9251C113.003 10.8293 113.006 10.7299 112.991 10.6326C112.976 10.5353 112.941 10.442 112.89 10.358C112.838 10.274 112.771 10.2009 112.691 10.143C112.611 10.0851 112.521 10.0434 112.425 10.0204C112.329 9.99744 112.23 9.99354 112.133 10.009C112.035 10.0244 111.942 10.0588 111.858 10.1103C111.774 10.1618 111.701 10.2293 111.643 10.309L108.16 15.099L106.28 13.219C106.211 13.1474 106.128 13.0903 106.036 13.051C105.945 13.0118 105.847 12.9911 105.747 12.9903C105.647 12.9895 105.549 13.0085 105.456 13.0463C105.364 13.084 105.281 13.1398 105.21 13.2102C105.14 13.2807 105.084 13.3644 105.046 13.4566C105.009 13.5488 104.99 13.6476 104.991 13.7472C104.992 13.8467 105.012 13.9451 105.052 14.0366C105.091 14.1281 105.148 14.2108 105.22 14.28L107.72 16.78C107.797 16.8567 107.889 16.9158 107.991 16.9534C108.092 16.9909 108.201 17.006 108.309 16.9975C108.417 16.9891 108.522 16.9573 108.617 16.9044C108.711 16.8515 108.793 16.7787 108.857 16.691L112.857 11.191Z" fill="#16A34A"/>
</svg>
